<?xml version="1.0" encoding="UTF-8"?>
<svg version="1.1" xmlns="http://www.w3.org/2000/svg" width="197" height="183">
<path d="M0 0 C65.01 0 130.02 0 197 0 C197 60.39 197 120.78 197 183 C131.99 183 66.98 183 0 183 C0 122.61 0 62.22 0 0 Z " fill="#FEFEFE" transform="translate(0,0)"/>
<path d="M0 0 C0 0.66 0 1.32 0 2 C0.86496094 2.09796875 1.72992188 2.1959375 2.62109375 2.296875 C10.4241047 3.92062294 17.78984194 9.06620888 23 15 C24.33041082 16.29467664 25.66404213 17.58604805 27 18.875 C35.907253 27.848974 41.51643001 38.87122887 45 51 C45.34675781 51.99515625 45.69351563 52.9903125 46.05078125 54.015625 C52.16698596 75.67646143 44.04376557 96.25828359 34 115 C33.34 115 32.68 115 32 115 C31.773125 115.53625 31.54625 116.0725 31.3125 116.625 C23.5861346 130.60604215 6.46166752 139.69107885 -8.28125 144.30859375 C-21.79822517 147.74610037 -38.879347 147.88846982 -52 143 C-52.99902344 142.63648438 -53.99804688 142.27296875 -55.02734375 141.8984375 C-61.64513089 139.31140848 -68.30063563 136.2997417 -74 132 C-74 131.34 -74 130.68 -74 130 C-74.5775 129.731875 -75.155 129.46375 -75.75 129.1875 C-78.05550043 127.97070811 -80.02056192 126.69666121 -82 125 C-82 124.34 -82 123.68 -82 123 C-83.485 122.505 -83.485 122.505 -85 122 C-88 118.55555556 -88 118.55555556 -88 116 C-88.66 116 -89.32 116 -90 116 C-95.72124869 108.13148165 -99.18708309 99.24087156 -102 90 C-102.2475 89.19433594 -102.495 88.38867188 -102.75 87.55859375 C-107.84127534 67.22884848 -102.51920202 46.55712759 -92 29 C-90.42649348 26.55120457 -88.79742107 24.30081742 -87 22 C-86.34 22 -85.68 22 -85 22 C-84.731875 21.401875 -84.46375 20.80375 -84.1875 20.1875 C-83.00082594 18.00152146 -81.90400887 16.58667406 -80 15 C-79.34 15 -78.68 15 -78 15 C-77.67 14.01 -77.34 13.02 -77 12 C-74.9849535 10.4304163 -73.02465943 9.04851845 -70.875 7.6875 C-70.2569751 7.29304688 -69.6389502 6.89859375 -69.00219727 6.4921875 C-48.3448634 -6.25355097 -22.8605725 -7.84191155 0 0 Z " fill="#30B253" transform="translate(126,25)"/>
<path d="M0 0 C1.25002808 -0.00478363 2.50005615 -0.00956726 3.78796387 -0.01449585 C6.43162595 -0.01789933 9.07297687 -0.01118867 11.71630859 0.01220703 C15.09967149 0.04069765 18.48105156 0.02428966 21.86434174 -0.00565529 C25.09713174 -0.02809622 28.32968409 -0.0123714 31.5625 0 C33.38291809 -0.01518173 33.38291809 -0.01518173 35.2401123 -0.03067017 C43.60377248 0.08619288 43.60377248 0.08619288 47.04101562 3.01806641 C48.57950992 6.30038947 48.95250229 8.08405028 48.28125 11.6640625 C41.83796292 20.18582929 31.40043568 23.13013189 21.28125 24.6640625 C8.84590271 25.82937746 -3.75351783 23.53236357 -13.71875 15.6640625 C-15.90263975 13.15283357 -16.6594881 12.0619638 -17.15625 8.7265625 C-15.74438897 -1.15646472 -8.15893781 -0.06804306 0 0 Z " fill="#414444" transform="translate(81.71875,112.3359375)"/>
<path d="M0 0 C2.92488107 1.99140839 4.66988282 3.41229358 5.41015625 6.97265625 C5.54085106 10.01273119 5.15280773 12.60269991 4.0625 15.4375 C0.69825164 17.986173 -2.8414244 18.42315331 -7 18 C-10.41836109 15.64987675 -11.65935218 13.94179102 -13.0625 10.0625 C-12.97939888 5.99054493 -11.53529331 4.11478893 -9 1 C-5.86128812 -0.56935594 -3.46144178 -0.35201103 0 0 Z " fill="#414544" transform="translate(75,69)"/>
<path d="M0 0 C2.50942199 0.82707541 3.56415412 1.5224391 5.0859375 3.6875 C5.37890625 6.16796875 5.37890625 6.16796875 5.2734375 8.875 C5.24636719 9.77605469 5.21929687 10.67710938 5.19140625 11.60546875 C5.15660156 12.29253906 5.12179688 12.97960937 5.0859375 13.6875 C4.0959375 14.0175 3.1059375 14.3475 2.0859375 14.6875 C2.0859375 15.3475 2.0859375 16.0075 2.0859375 16.6875 C-5.76430757 18.41489597 -5.76430757 18.41489597 -9.9765625 15.75 C-12.09838541 12.39615089 -12.67512042 10.52602629 -12.38671875 6.62890625 C-10.71249788 -0.2478522 -6.01501053 -0.82116185 0 0 Z " fill="#414544" transform="translate(126.9140625,69.3125)"/>
<path d="M0 0 C0 0.66 0 1.32 0 2 C-2.52475462 3.26237731 -4.31200466 3.09856404 -7.125 3.0625 C-8.03507812 3.05347656 -8.94515625 3.04445312 -9.8828125 3.03515625 C-10.58148438 3.02355469 -11.28015625 3.01195312 -12 3 C-7.82744729 -0.58050131 -5.33135955 -0.26656798 0 0 Z " fill="#42B75F" transform="translate(98,168)"/>
</svg>
