<?xml version="1.0" encoding="UTF-8"?>
<svg version="1.1" xmlns="http://www.w3.org/2000/svg" width="197" height="183">
<path d="M0 0 C65.01 0 130.02 0 197 0 C197 60.39 197 120.78 197 183 C131.99 183 66.98 183 0 183 C0 122.61 0 62.22 0 0 Z " fill="#FEFEFE" transform="translate(0,0)"/>
<path d="M0 0 C1.04800781 0.44730469 2.09601563 0.89460938 3.17578125 1.35546875 C9.82639614 4.4447332 15.40013017 8.30296633 21 13 C22.010625 13.763125 23.02125 14.52625 24.0625 15.3125 C24.701875 15.869375 25.34125 16.42625 26 17 C26 17.66 26 18.32 26 19 C26.66 19 27.32 19 28 19 C32 23.47058824 32 23.47058824 32 26 C32.66 26 33.32 26 34 26 C42.72138994 41.06225162 47.4083765 53.75400235 47.5 71.3125 C47.50644531 72.49287842 47.51289063 73.67325684 47.51953125 74.8894043 C47.36947857 85.15430626 45.27198688 93.97122712 40.8125 103.1875 C40.28269531 104.29480469 39.75289062 105.40210938 39.20703125 106.54296875 C38.60955078 107.75919922 38.60955078 107.75919922 38 109 C37.34 109 36.68 109 36 109 C35.9175 109.53625 35.835 110.0725 35.75 110.625 C34.72418729 113.87340691 33.03436106 116.28751859 31 119 C30.34 119 29.68 119 29 119 C28.77054688 119.56332031 28.54109375 120.12664062 28.3046875 120.70703125 C26.65068125 123.61392248 24.61103363 125.45597129 22.125 127.6875 C21.26132813 128.47511719 20.39765625 129.26273438 19.5078125 130.07421875 C17.18721902 131.85623213 15.84989312 132.60896815 13 133 C13 133.66 13 134.32 13 135 C-7.51121472 145.78759852 -29.51639116 150.02391771 -52.234375 143 C-65.13240469 138.39788612 -75.62101849 130.87002767 -85 121 C-85 120.34 -85 119.68 -85 119 C-85.66 119 -86.32 119 -87 119 C-99.49040096 103.6401826 -105.73571886 83.72621032 -104 64 C-102.7000979 54.94778318 -100.46471762 46.45953897 -97 38 C-96.34 38 -95.68 38 -95 38 C-94.9175 37.319375 -94.835 36.63875 -94.75 35.9375 C-93.77667472 32.1253093 -92.04192545 29.35929671 -90 26 C-89.34 26 -88.68 26 -88 26 C-87.566875 25.1028125 -87.566875 25.1028125 -87.125 24.1875 C-86 22 -86 22 -84 19 C-83.34 19 -82.68 19 -82 19 C-81.67 18.01 -81.34 17.02 -81 16 C-79.09783034 14.28657275 -77.2214771 12.72886647 -75.1875 11.1875 C-74.31605347 10.5231897 -74.31605347 10.5231897 -73.42700195 9.84545898 C-53.3703796 -5.04279923 -23.36011401 -10.1826138 0 0 Z " fill="#FCAD4E" transform="translate(126,23)"/>
<path d="M0 0 C2.46018982 -0.38095093 2.46018982 -0.38095093 5.59545898 -0.38818359 C7.35254433 -0.40236832 7.35254433 -0.40236832 9.14512634 -0.4168396 C10.41594559 -0.41076691 11.68676483 -0.40469421 12.99609375 -0.3984375 C14.29571548 -0.40130768 15.59533722 -0.40417786 16.93434143 -0.40713501 C19.68753734 -0.41156148 22.44044149 -0.40511846 25.19360352 -0.39111328 C28.7224045 -0.37403745 32.2505202 -0.3838495 35.77929592 -0.40183067 C39.14328338 -0.4152825 42.50708682 -0.40586135 45.87109375 -0.3984375 C47.13988876 -0.40451019 48.40868378 -0.41058289 49.71592712 -0.4168396 C50.89046951 -0.40738312 52.0650119 -0.39792664 53.27514648 -0.38818359 C54.3105809 -0.38579681 55.34601532 -0.38341003 56.41282654 -0.38095093 C59 0 59 0 60.86561584 1.30160522 C62 3 62 3 61.875 6.5625 C61 10 61 10 58 12 C55.50221252 12.26742554 55.50221252 12.26742554 52.49047852 12.29052734 C51.36243301 12.30328705 50.23438751 12.31604675 49.07215881 12.32919312 C47.85338547 12.33141876 46.63461212 12.33364441 45.37890625 12.3359375 C43.50174171 12.3459227 43.50174171 12.3459227 41.58665466 12.35610962 C38.9377522 12.36624345 36.28926008 12.37179068 33.64038086 12.37060547 C30.24948212 12.37040219 26.85942069 12.39771263 23.46872044 12.43214989 C20.23048033 12.45975987 16.99224813 12.45856785 13.75390625 12.4609375 C12.53715714 12.47530853 11.32040802 12.48967957 10.06678772 12.50448608 C8.36999123 12.4952562 8.36999123 12.4952562 6.63891602 12.48583984 C5.6442482 12.48868988 4.64958038 12.49153992 3.62477112 12.49447632 C0.27236397 11.86292184 -0.94240373 10.67250283 -3 8 C-2.82813436 4.47675428 -1.98272184 2.97408276 0 0 Z " fill="#434344" transform="translate(68,114)"/>
<path d="M0 0 C2.78655909 0.77933946 4.51218423 2.34594864 6.1640625 4.6875 C7.66336282 8.26623192 6.91485054 10.83171239 5.94140625 14.54296875 C4.81640625 16.48046875 4.81640625 16.48046875 2.94140625 17.54296875 C-0.89896306 18.53862005 -3.12818864 18.94473459 -6.80859375 17.35546875 C-9.12766433 15.48732856 -10.69361647 14.19709125 -12.05859375 11.54296875 C-12.05859375 7.63601798 -11.27834772 5.84929246 -8.99609375 2.66796875 C-5.71199338 0.29223657 -3.97388256 -0.27900124 0 0 Z " fill="#484644" transform="translate(74.05859375,66.45703125)"/>
<path d="M0 0 C2.56454749 0.83174513 3.62943805 1.54120901 5.3125 3.625 C6.35304779 7.21961964 5.91124178 10.40097784 5 14 C3.875 15.9375 3.875 15.9375 2 17 C-1.93420258 18.01997845 -4.08706242 18.42603754 -7.8125 16.6875 C-10 15 -10 15 -12 13 C-12.55980872 8.12166689 -12.74549961 6.08436307 -9.9375 2 C-6.28060335 -0.48980198 -4.34579086 -0.55310065 0 0 Z " fill="#464544" transform="translate(127,67)"/>
</svg>
