<?xml version="1.0" encoding="UTF-8"?>
<svg version="1.1" xmlns="http://www.w3.org/2000/svg" width="197" height="183">
<path d="M0 0 C65.01 0 130.02 0 197 0 C197 60.39 197 120.78 197 183 C131.99 183 66.98 183 0 183 C0 122.61 0 62.22 0 0 Z " fill="#FEFEFE" transform="translate(0,0)"/>
<path d="M0 0 C1.23169922 -0.00322266 2.46339844 -0.00644531 3.73242188 -0.00976562 C9.82265638 0.02634897 15.07999626 0.22998888 20.8125 2.3125 C21.78832031 2.59609375 22.76414062 2.8796875 23.76953125 3.171875 C30.79340668 5.36263232 36.70594178 8.22394381 42.8125 12.3125 C43.53050781 12.78300781 44.24851562 13.25351562 44.98828125 13.73828125 C46.64373283 14.86292671 48.23643758 16.07905985 49.8125 17.3125 C49.8125 17.9725 49.8125 18.6325 49.8125 19.3125 C51.1325 19.9725 52.4525 20.6325 53.8125 21.3125 C53.8125 21.9725 53.8125 22.6325 53.8125 23.3125 C54.8025 23.6425 55.7925 23.9725 56.8125 24.3125 C56.8125 24.9725 56.8125 25.6325 56.8125 26.3125 C57.4725 26.3125 58.1325 26.3125 58.8125 26.3125 C62.8125 31.72426471 62.8125 31.72426471 62.8125 34.3125 C63.4725 34.3125 64.1325 34.3125 64.8125 34.3125 C70.91655286 47.24608741 76.21651847 59.82770404 76.1875 74.3125 C76.18617065 75.53211426 76.18617065 75.53211426 76.18481445 76.77636719 C75.97392856 87.82807282 73.3575117 98.25877784 68.8125 108.3125 C68.1525 108.3125 67.4925 108.3125 66.8125 108.3125 C66.72484375 109.02535156 66.6371875 109.73820312 66.546875 110.47265625 C65.66144036 113.89665084 64.18848052 115.93267619 62.0625 118.75 C61.33933594 119.7090625 60.61617187 120.668125 59.87109375 121.65625 C59.19175781 122.5328125 58.51242188 123.409375 57.8125 124.3125 C57.32910156 124.9415625 56.84570312 125.570625 56.34765625 126.21875 C53.81997018 129.38441434 51.12824924 131.98251405 47.8125 134.3125 C47.1525 134.3125 46.4925 134.3125 45.8125 134.3125 C45.8125 134.9725 45.8125 135.6325 45.8125 136.3125 C27.84073297 149.1679802 7.16470168 152.12954967 -14.34375 150 C-32.28420708 146.82067849 -49.1569518 135.49463341 -60.1875 121.3125 C-60.1875 120.6525 -60.1875 119.9925 -60.1875 119.3125 C-60.8475 119.3125 -61.5075 119.3125 -62.1875 119.3125 C-70.79585859 104.63770508 -75.58560835 91.68657462 -75.6875 74.5 C-75.69394531 73.47471191 -75.70039062 72.44942383 -75.70703125 71.39306641 C-75.53353323 61.01488194 -73.31047699 51.398849 -68.5 42.1875 C-68.15259766 41.51009766 -67.80519531 40.83269531 -67.44726562 40.13476562 C-62.6719074 31.10890838 -56.02271734 22.89702537 -48.1875 16.3125 C-47.5275 16.3125 -46.8675 16.3125 -46.1875 16.3125 C-46.1875 15.6525 -46.1875 14.9925 -46.1875 14.3125 C-40.89338235 10.3125 -40.89338235 10.3125 -37.1875 10.3125 C-37.1875 9.6525 -37.1875 8.9925 -37.1875 8.3125 C-35.23112971 7.53669799 -33.27227397 6.76716325 -31.3125 6 C-29.67667969 5.35611328 -29.67667969 5.35611328 -28.0078125 4.69921875 C-26.73587787 4.23285967 -25.4623132 3.7709319 -24.1875 3.3125 C-23.10940063 2.90342407 -23.10940063 2.90342407 -22.00952148 2.48608398 C-14.67881812 -0.04519263 -7.69906137 -0.10167804 0 0 Z " fill="#E32931" transform="translate(98.1875,17.6875)"/>
<path d="M0 0 C1.18239258 0.00845947 1.18239258 0.00845947 2.38867188 0.01708984 C13.62388017 0.24981258 23.30207185 3.37996593 31.9375 10.8203125 C33.1875 12.3125 33.1875 12.3125 33.6875 15.1875 C33.03097846 19.29075962 31.28970196 20.66427881 28.1875 23.3125 C27.6925 23.8075 27.6925 23.8075 27.1875 24.3125 C25.52118247 24.42168271 23.85026704 24.46156774 22.18041992 24.47363281 C21.11228561 24.48324036 20.04415131 24.4928479 18.94364929 24.50274658 C17.78017471 24.50699646 16.61670013 24.51124634 15.41796875 24.515625 C14.23028397 24.52132507 13.04259918 24.52702515 11.81892395 24.53289795 C9.29945776 24.54236601 6.77997909 24.54888906 4.26049805 24.55273438 C0.40196116 24.56243224 -3.45604159 24.59343633 -7.31445312 24.625 C-9.75780932 24.63153039 -12.20116935 24.63678072 -14.64453125 24.640625 C-15.80193314 24.6529718 -16.95933502 24.6653186 -18.15180969 24.67803955 C-19.22940048 24.67503845 -20.30699127 24.67203735 -21.41723633 24.66894531 C-22.83834465 24.67441376 -22.83834465 24.67441376 -24.28816223 24.67999268 C-27.27250448 24.24553262 -28.63145912 23.36132419 -30.8125 21.3125 C-31.94125109 18.31372845 -32.11601912 15.49382998 -31.8125 12.3125 C-27.45877652 5.70685058 -18.40788226 2.45071461 -10.96069336 0.69848633 C-7.30631229 0.04186893 -3.70527452 -0.0279252 0 0 Z " fill="#434244" transform="translate(97.8125,109.6875)"/>
<path d="M0 0 C2.99380345 1.99586897 4.63808488 3.38259171 5.44140625 6.97265625 C5.63434819 10.30246073 5.24734291 12.59806777 3.5 15.4375 C0.06236457 17.58602214 -2.94804044 18.32158409 -7 18 C-9.9375 16.5 -9.9375 16.5 -12 14 C-13.00839778 10.30254147 -13.23832164 7.89370614 -12.25 4.1875 C-9.49229715 -0.63847998 -5.05425236 -0.9341517 0 0 Z " fill="#454244" transform="translate(76,66)"/>
<path d="M0 0 C2.81282746 1.27855794 4.50828818 2.35183442 6.375 4.8125 C7.26089715 7.91314004 6.89945179 9.91616529 6 13 C3.69707891 16.27723385 2.37986274 16.91336464 -1.5625 17.8125 C-4.95740425 17.9976766 -6.81980685 17.81705679 -9.625 15.875 C-11.74567717 12.9831675 -11.87793324 10.53993611 -12 7 C-9.42490541 1.20603718 -6.27824116 -0.62782412 0 0 Z " fill="#454243" transform="translate(127,66)"/>
</svg>
