<?xml version="1.0" encoding="UTF-8"?>
<svg version="1.1" xmlns="http://www.w3.org/2000/svg" width="197" height="183">
<path d="M0 0 C65.01 0 130.02 0 197 0 C197 60.39 197 120.78 197 183 C131.99 183 66.98 183 0 183 C0 122.61 0 62.22 0 0 Z " fill="#FEFEFE" transform="translate(0,0)"/>
<path d="M0 0 C1.13759766 -0.01160156 2.27519531 -0.02320312 3.44726562 -0.03515625 C19.0092634 0.01810786 33.98601207 5.07221825 46.5625 14.375 C46.5625 15.035 46.5625 15.695 46.5625 16.375 C47.119375 16.6225 47.67625 16.87 48.25 17.125 C50.98660913 18.60424818 53.23900869 20.30967439 55.5625 22.375 C55.5625 23.035 55.5625 23.695 55.5625 24.375 C56.2225 24.375 56.8825 24.375 57.5625 24.375 C58.5525 26.85 58.5525 26.85 59.5625 29.375 C60.2225 29.375 60.8825 29.375 61.5625 29.375 C61.8925 30.695 62.2225 32.015 62.5625 33.375 C63.2225 33.375 63.8825 33.375 64.5625 33.375 C70.44430576 44.70351905 75.68012683 55.10547998 75.6953125 68.18359375 C75.69660156 69.26060547 75.69789063 70.33761719 75.69921875 71.44726562 C75.69535156 72.55779297 75.69148437 73.66832031 75.6875 74.8125 C75.69136719 75.91916016 75.69523438 77.02582031 75.69921875 78.16601562 C75.67673654 96.97238826 68.78975344 111.48547938 57.5625 126.375 C55.93917033 127.76076923 54.27525535 129.10141268 52.5625 130.375 C51.96953125 130.98988281 51.3765625 131.60476562 50.765625 132.23828125 C44.23325689 138.57375174 35.98482228 143.07625711 27.5625 146.375 C26.758125 146.74625 25.95375 147.1175 25.125 147.5 C17.05524229 150.25552702 9.02692609 150.68944994 0.5625 150.625 C-0.45328125 150.63273438 -1.4690625 150.64046875 -2.515625 150.6484375 C-12.75939799 150.62217142 -21.26064273 148.88458965 -30.4375 144.375 C-31.22898438 144.02695313 -32.02046875 143.67890625 -32.8359375 143.3203125 C-41.44813334 139.38098002 -49.0665498 133.38304522 -55.4375 126.375 C-55.4375 125.715 -55.4375 125.055 -55.4375 124.375 C-56.0975 124.375 -56.7575 124.375 -57.4375 124.375 C-59.1640625 122.29296875 -59.1640625 122.29296875 -61.0625 119.5625 C-61.69414063 118.66917969 -62.32578125 117.77585937 -62.9765625 116.85546875 C-64.4375 114.375 -64.4375 114.375 -64.4375 111.375 C-65.0975 111.375 -65.7575 111.375 -66.4375 111.375 C-66.9325 108.405 -66.9325 108.405 -67.4375 105.375 C-68.0975 105.375 -68.7575 105.375 -69.4375 105.375 C-76.9587367 84.34239881 -77.14685909 62.76992009 -68.05078125 42.24609375 C-63.65857475 33.59404861 -57.47927085 26.01438394 -50.4375 19.375 C-49.880625 18.776875 -49.32375 18.17875 -48.75 17.5625 C-47.4375 16.375 -47.4375 16.375 -45.4375 16.375 C-45.4375 15.715 -45.4375 15.055 -45.4375 14.375 C-32.09599876 4.07718725 -16.62492952 -0.16897162 0 0 Z " fill="#F35B36" transform="translate(92.4375,16.625)"/>
<path d="M0 0 C0.82242188 0.38542969 1.64484375 0.77085938 2.4921875 1.16796875 C7.4861969 3.69772105 11.05296792 6.18651426 14 11 C14 14.25 14 14.25 13 17 C9.72427692 19.18381539 8.79713255 19.48244584 5 19 C2.60546875 17.57421875 2.60546875 17.57421875 0.1875 15.6875 C-8.15451335 9.60041788 -14.82798802 8.04127234 -25.09765625 9.24609375 C-30.12100551 10.2148112 -33.80165438 12.59831251 -37.921875 15.5625 C-41.20961405 17.83672551 -43.06292364 19.05622458 -47.125 18.8125 C-50 18 -50 18 -52 15 C-51.90547507 11.26377766 -51.53607855 9.55619407 -48.91796875 6.83984375 C-33.53883127 -3.87494875 -17.60253708 -8.68806895 0 0 Z " fill="#454344" transform="translate(112,113)"/>
<path d="M0 0 C3.38031589 1.18767855 3.93216817 1.89825225 6 5 C6.65259392 10.05760286 6.65259392 10.05760286 6 13 C3.14809128 16.25932425 1.25061619 17.73945496 -3 18.625 C-7.25061619 17.73945496 -9.14809128 16.25932425 -12 13 C-12.81113355 10.14665078 -12.76136134 7.86087293 -12 5 C-8.58995171 0.03992976 -5.8809843 -0.74848891 0 0 Z " fill="#474344" transform="translate(70,65)"/>
<path d="M0 0 C2.39386981 1.81353774 2.85397566 2.96936445 3.26953125 5.90234375 C3.4281984 9.05805711 3.2006721 11.47825255 2.0625 14.4375 C-1.32524032 17.00396994 -4.81627452 17.39845005 -9 17 C-12.06126024 15.75558527 -12.82595523 14.73149215 -15 12 C-15.90012514 8.20447234 -15.55965729 5.03936355 -13.6875 1.5625 C-9.75463802 -2.07903887 -4.84432305 -1.1366568 0 0 Z " fill="#464444" transform="translate(125,66)"/>
</svg>
