<?xml version="1.0" encoding="UTF-8"?>
<svg version="1.1" xmlns="http://www.w3.org/2000/svg" width="197" height="183">
<path d="M0 0 C65.01 0 130.02 0 197 0 C197 60.39 197 120.78 197 183 C131.99 183 66.98 183 0 183 C0 122.61 0 62.22 0 0 Z " fill="#FEFEFE" transform="translate(0,0)"/>
<path d="M0 0 C1.25619141 -0.02900391 2.51238281 -0.05800781 3.80664062 -0.08789062 C22.08895831 -0.21059074 38.54139604 7.14606241 52.0625 19.3125 C52.63097656 19.82296875 53.19945312 20.3334375 53.78515625 20.859375 C55.1875 22.1875 55.1875 22.1875 57.0625 24.3125 C57.0625 24.9725 57.0625 25.6325 57.0625 26.3125 C58.0525 26.6425 59.0425 26.9725 60.0625 27.3125 C65.91915853 34.52917756 70.01936631 42.57501767 73.0625 51.3125 C73.3821875 52.18648437 73.701875 53.06046875 74.03125 53.9609375 C79.87257623 72.83707504 76.01533472 93.71473806 68.0625 111.3125 C67.4025 111.3125 66.7425 111.3125 66.0625 111.3125 C65.98128906 112.34117187 65.98128906 112.34117187 65.8984375 113.390625 C64.75632163 117.38269357 62.38185006 120.0105703 59.6875 123.0625 C58.88590454 123.98131958 58.88590454 123.98131958 58.06811523 124.91870117 C45.23644306 139.30355175 45.23644306 139.30355175 37.0625 140.3125 C37.0625 140.9725 37.0625 141.6325 37.0625 142.3125 C35.02150065 143.1058855 32.9796691 143.8971303 30.9375 144.6875 C29.80054687 145.12835938 28.66359375 145.56921875 27.4921875 146.0234375 C25.79449219 146.66152344 25.79449219 146.66152344 24.0625 147.3125 C23.09570312 147.67601562 22.12890625 148.03953125 21.1328125 148.4140625 C7.71345781 152.34084568 -9.8549075 152.01764292 -22.9375 147.3125 C-23.88109375 146.99539062 -24.8246875 146.67828125 -25.796875 146.3515625 C-31.9861067 144.04288083 -37.43958029 140.92465659 -42.9375 137.3125 C-43.57276611 136.89734131 -44.20803223 136.48218262 -44.86254883 136.05444336 C-48.58087978 133.52398857 -51.25672823 130.98385719 -53.9375 127.3125 C-54.618125 126.631875 -55.29875 125.95125 -56 125.25 C-57.87903162 123.37096838 -59.46399631 121.52275553 -60.9375 119.3125 C-60.9375 118.6525 -60.9375 117.9925 -60.9375 117.3125 C-61.5975 117.3125 -62.2575 117.3125 -62.9375 117.3125 C-64.23342249 114.60613164 -65.52433165 111.8975566 -66.8125 109.1875 C-67.35970703 108.04667969 -67.35970703 108.04667969 -67.91796875 106.8828125 C-75.93409827 89.9760666 -77.12367408 67.95773653 -71.28320312 50.05712891 C-68.73875592 43.10521116 -65.29696977 36.29537065 -60.9375 30.3125 C-59.9475 29.9825 -58.9575 29.6525 -57.9375 29.3125 C-57.50244141 28.19488281 -57.50244141 28.19488281 -57.05859375 27.0546875 C-53.3722012 18.037797 -40.54572822 10.18606815 -31.95898438 6.45214844 C-20.93773386 1.97192424 -11.94560526 0.08945785 0 0 Z " fill="#8BC869" transform="translate(96.9375,19.6875)"/>
<path d="M0 0 C2.25 2 2.25 2 4 4 C4.99 4.33 5.98 4.66 7 5 C7 5.66 7 6.32 7 7 C16.91063546 9.7339684 27.7030735 11.08905461 37.09375 6.1484375 C37.7228125 5.76945312 38.351875 5.39046875 39 5 C39.6084375 4.64164062 40.216875 4.28328125 40.84375 3.9140625 C43.95500395 1.96858961 43.95500395 1.96858961 46 -1 C51.625 -1.25 51.625 -1.25 55 1 C55.76959342 4.43357065 56.06005191 5.76882574 55 9 C49.65180532 15.13436823 42.65205526 18.60873273 35 21 C33.948125 21.33644531 33.948125 21.33644531 32.875 21.6796875 C22.84842421 24.53882825 13.03024295 22.92484838 3.73828125 18.41796875 C-6.78651551 12.47592482 -6.78651551 12.47592482 -10 8 C-10.52173331 4.7391668 -10.52820615 2.96319944 -8.9375 0.0625 C-5.74262547 -1.68952797 -3.42484676 -0.90127546 0 0 Z " fill="#434645" transform="translate(75,113)"/>
<path d="M0 0 C2.375 1.375 2.375 1.375 4 3 C4 3.66 4 4.32 4 5 C4.66 5 5.32 5 6 5 C6.50341475 10.2858549 5.26910671 12.86554151 2 17 C-1.49402539 18.7470127 -5.28688318 17.85687311 -9 17 C-11.39386981 15.18646226 -11.85397566 14.03063555 -12.26953125 11.09765625 C-12.43896582 7.72779095 -12.30463611 5.56575278 -10.6875 2.5625 C-7.50538073 -0.38390674 -4.14155901 -0.33808645 0 0 Z " fill="#434545" transform="translate(127,68)"/>
<path d="M0 0 C2.875 2.4375 2.875 2.4375 5 5 C5.33 5.33 5.66 5.66 6 6 C5.84129091 10.12643627 5.30496088 12.54255867 3 16 C-0.71471465 18.47647643 -2.68065525 18.42160527 -6.97265625 17.62890625 C-9 17 -9 17 -11.0625 15.5 C-12.48770767 11.69944622 -12.231449 8.01178261 -12 4 C-11.34 4 -10.68 4 -10 4 C-9.67 3.01 -9.34 2.02 -9 1 C-5.86128812 -0.56935594 -3.46144178 -0.35201103 0 0 Z " fill="#434645" transform="translate(75,68)"/>
</svg>
